# xmcd
#
# Track frame offsets:
#	182
#	9287
#	14900
#	23270
#	31637
#	38842
#	49042
#	55315
#	63120
#	75380
#	84062
#	93665
#	100855
#	106995
#	115662
#	124065
#
# Disc length: 1741 seconds
#
# Revision: 1
# Processed by: cddbd v1.5.1PL2 Copyright (c) Steve Scherf et al.
# Submitted via: audiograbber 1.81.03
#
DISCID=ac06cb10
DTITLE=CHRISTMAS - IN THE MOOD OF CHRISTMAS
DYEAR=1900
DGENRE=Acid
TTITLE0=Dance with Santa Claus
TTITLE1=We wish you a merry Christmas
TTITLE2=Silent night
TTITLE3=Gloria in excelsis deo
TTITLE4=The first noel
TTITLE5=Feliz navidad
TTITLE6=Baby boy
TTITLE7=Oh my lord
TTITLE8=Ave Maria
TTITLE9=Jingle bells
TTITLE10=Mary's boy child
TTITLE11=Oh come all ye faithful
TTITLE12=Winter wonderland
TTITLE13=Have yorself a merry little Christmas
TTITLE14=Joy to the world
TTITLE15=White Christmas
EXTD=
EXTT0=
EXTT1=
EXTT2=
EXTT3=
EXTT4=
EXTT5=
EXTT6=
EXTT7=
EXTT8=
EXTT9=
EXTT10=
EXTT11=
EXTT12=
EXTT13=
EXTT14=
EXTT15=
PLAYORDER=
